<svg id="Layer_1" data-name="Layer 1" xmlns="http://www.w3.org/2000/svg" viewBox="0 0 1465.02 174.84"><defs><style>.cls-1{fill:#f2f2f2;}</style></defs><title>logo-foot-white</title><path class="cls-1" d="M7377.1,7287.07c-8.77-1-7.58-4.91,1.63-4.91,4.16,0,7.73,1,7.73,2.08,0,3-2.53,3.72-9.36,2.83Zm136.73,0c-3.27-.45-6.09-1.64-6.09-2.83,0-2.67,12.63-2.67,14.27,0,1.78,2.83-.9,3.72-8.18,2.83Zm-169.28-2.68c0-1.19,3-2.23,6.54-2.23s6.68,1,6.68,2.23-3,2.23-6.68,2.23-6.54-1-6.54-2.23Zm55.14,0c0-1.19,3.42-2.23,7.73-2.23,4.16,0,7.72,1,7.72,2.23s-3.56,2.23-7.72,2.23c-4.31,0-7.73-1-7.73-2.23Zm27.49,0c.75-1.19,4.31-2.23,7.88-2.23s6.54,1,6.54,2.23-3.57,2.23-7.88,2.23c-4.6,0-7.28-.89-6.54-2.23Zm26.61,0c.74-1.19,4.16-2.23,7.73-2.23s6.54,1,6.54,2.23-3.57,2.23-7.88,2.23c-4.61,0-7.28-.89-6.39-2.23Zm27.49,0c0-1.19,3-2.23,6.54-2.23s7.14,1,7.88,2.23-1.93,2.23-6.54,2.23c-4.31,0-7.88-1-7.88-2.23Zm52.91,0c0-1.19,3.57-2.23,7.73-2.23s7.73,1,7.73,2.23-3.42,2.23-7.73,2.23-7.73-1-7.73-2.23Zm26.61,0c0-1.19,3.42-2.23,7.73-2.23s7.72,1,7.72,2.23-3.56,2.23-7.72,2.23-7.73-1-7.73-2.23Zm27.49,0c.75-1.19,4.31-2.23,7.88-2.23s6.54,1,6.54,2.23-3.57,2.23-7.88,2.23c-4.75,0-7.28-.89-6.54-2.23Zm27.65,0c0-1.19,3-2.23,6.54-2.23s6.69,1,6.69,2.23-3,2.23-6.69,2.23-6.54-1-6.54-2.23Zm26.45,0c0-1.19,3-2.23,6.54-2.23,3.72,0,6.69,1,6.69,2.23s-3,2.23-6.69,2.23c-3.56,0-6.54-1-6.54-2.23Zm26.46,0c0-1.19,3.42-2.23,7.73-2.23s7.73,1,7.73,2.23-3.42,2.23-7.73,2.23-7.73-1-7.73-2.23Zm26.45,0c0-1.19,3.57-2.23,7.73-2.23,4.31,0,7.73,1,7.73,2.23s-3.42,2.23-7.73,2.23c-4.16,0-7.73-1-7.73-2.23Zm27.65,0c.74-1.19,4.31-2.23,7.88-2.23s6.39,1,6.39,2.23-3.42,2.23-7.88,2.23c-4.61,0-7.28-.89-6.39-2.23Zm26.45,0c.75-1.19,4.31-2.23,7.88-2.23s6.39,1,6.39,2.23-3.42,2.23-7.73,2.23c-4.75,0-7.28-.89-6.54-2.23Zm26.46,0c.74-1.19,4.31-2.23,7.73-2.23s7,1,7.73,2.23-2.23,2.23-7.73,2.23-8.47-.89-7.73-2.23Zm-1267.19-18.13c-12-4-26.15-18.28-34-34.33-6.54-13.23-7.28-16.5-7.14-33.59.15-15.46,1.19-20.81,5.95-30.92,19.32-40.28,60-49.94,88.73-21.25,16.2,16.2,21.7,31.51,20.51,56.62-.89,19.47-4.76,30.32-16.35,45.78-11.89,15.76-38.94,24.08-57.67,17.69Zm36.57-8.18c10.4-5.35,20.66-16.2,27.05-28.83,4.16-8.17,5.2-13.52,5.2-29.73.15-22.59-3.87-33.14-18.28-48.3-11.15-11.74-19.18-15.31-33.89-15.31-10.11-.15-14.71,1.19-23.19,6.39-11.44,7.14-23.33,22.89-26.9,35.82-3.71,13.38-2.82,34.34,2.08,47.56,4.91,12.78,19.47,29,30.32,33.74,9.52,4.16,28.24,3.57,37.61-1.34Zm62.27-58.56V7132.2h28.39c25.71,0,29,.44,35.67,4.9a48.86,48.86,0,0,1,11.74,12.34c5.2,8.92,5.8,27.35,1.34,36.71-3.72,7.58-16.2,16.64-22.89,16.64-11.3.15-10.85,2.83,6.24,31.66,9.22,15.31,16.65,28.84,16.65,30,0,6.69-5.8-.89-22-28.68l-18.13-31.06-15.76.74-15.75.59-.59,30.32c-.45,17.84-1.49,30.32-2.83,30.32s-2.08-25.11-2.08-67.18Zm63-6.09c18-9.51,15.6-42.65-3.87-52.61-7.13-3.72-12.18-4.31-31.06-3.72l-22.59.6v59.6l17.69,1c20.21,1.33,30.17,0,39.83-4.91Zm46.07,70.6c-.59-1.64-.74-31.66-.44-66.88l.59-63.91,23.63-.6c20.07-.59,25,0,32.25,3.72,11.75,5.94,21.41,16.05,28.54,29.72,5.35,10,5.95,13.68,5.95,32.26,0,17.39-.9,23-5.21,32.69-6.24,13.83-23.48,30.17-35.22,33.44s-48.75,3-50.09-.44Zm54.25-7.28c9.81-5.06,20.66-16.95,26.31-28.84,4.16-8.47,5.2-14.71,5.35-28.39.15-27.64-10.41-46.37-32.25-57.22-9.52-4.75-14.42-5.79-29.73-5.79h-18.28V7198c0,33.74.74,62.12,1.63,63,2.68,2.67,40.13-.75,47-4.31Zm72.68-57.23c0-43.39.89-67.32,2.23-67.32s2.23,23.93,2.23,67.32-.75,67.18-2.23,67.18-2.23-23.78-2.23-67.18Zm33.14,66.74c-.74-8.47-.74-131.83,0-131.83s22.3,25.26,48.16,56.18c26,30.91,48,56.33,49.19,56.33s1.93-24.23,1.93-57.37c0-36.86.9-57.37,2.23-57.37,1.49,0,2.23,23.63,2.23,66.58,0,55.59-.44,66.14-3,63.47-1.63-1.79-13.23-15.61-25.86-30.77-50.53-60.79-66.58-79.52-68.52-79.52-1,0-1.93,24.83-1.93,57.37,0,36.86-.89,57.37-2.23,57.37-1.19,0-2.23-.14-2.23-.44Zm178.8-1.64c-16.94-5.05-32.25-19-40.13-36.41-4-8.77-5.05-15-4.9-29.87,0-16.95.59-20.07,7.43-32.7,12-22.44,29-33.44,51.87-33.44,17.39,0,26.9,4.16,40.13,18,21.25,22.3,26.75,53.21,12.63,70.15-7.28,8.62-16.94,9.07-25.27,1l-5.94-5.64-8.32,5.64c-19.62,13.38-43,1.49-43-21.85a29.68,29.68,0,0,1,13.82-25.56c9.52-5.65,16.95-5.35,26.46,1,8.32,5.65,10.4,5.35,10.4-1.48,0-2.23,1-3.57,2.23-2.68,1.19.74,2.23,9.51,2.23,19.62,0,15.16.75,19.32,4.61,24.08,2.53,3.41,6.69,5.94,9.66,5.94,14.42,0,19.47-27.94,9.07-49.64-9.37-20.06-30-34.33-49.35-34.18-11.29,0-28.83,8.62-37.45,18.28-11.44,13.22-14.42,21-15.61,40.57-.89,16.5-.29,19.17,5.65,32.11,10.11,21.55,26.31,32.84,46.67,32.84,13.52-.15,23.33-3,29.58-8.62,2.52-2.38,4.6-2.82,6.09-1.34,3,3-4,9.22-14.86,13.08-9.22,3.27-25,3.72-33.74,1Zm26.6-51.12c13.53-14.42,4.46-37.31-14.86-37.16-9.21.15-13.23,2.38-19,10.85s-4.76,16.64,3.12,25.41c5.65,6.54,8.32,7.88,15.6,7.88,7,0,10.11-1.49,15.16-7Zm127.08,51.72c-.74-.75-1.49-30-1.49-65.1v-63.61h-22c-13.23,0-22.15-.89-22.15-2.08,0-1.49,17.69-2.23,48.75-2.23,31.81,0,48.15.74,47.26,2.23-.74,1.19-11,2.08-23.33,2.08h-21.85v65.1c0,35.81-.89,65.09-1.93,65.09a4.77,4.77,0,0,1-3.27-1.48Zm75.8-65.7V7132.2h28.39c25.71,0,29,.44,35.67,4.9,4,2.83,9.36,8.33,11.74,12.49,5.65,9.66,5.94,30.46.59,38.79-4.75,7.13-16.2,14.41-23,14.41-2.67,0-5.49,1.34-6.09,2.83s6.24,15.75,15.31,31.51c9.66,16.64,15.46,28.83,14,29.43-1.34.44-3.27-.6-4.31-2.23s-9.36-15.76-18.58-31.36L7322,7204.73l-15.76.74-15.75.59-.45,27.65c-.3,15.16-.59,28.83-.59,30.32a2.51,2.51,0,0,1-2.23,2.67c-1.49,0-2.23-23.78-2.23-67.18Zm63.91-5.64c11.14-5.8,14.71-29.88,6.69-43-7.29-11.74-16.2-14.56-42.51-13.82l-22.59.6v59.6l17.68,1c18.43,1.18,33.44-.45,40.73-4.46ZM7405,7264c-.6-1.64-.75-31.51-.45-66.59.45-48.75,1.19-64,3.27-64.8,2.23-.59,2.83,13.68,2.83,66.59,0,44.88-.75,67.47-2.23,67.47A4.15,4.15,0,0,1,7405,7264Zm49.79.59c0-1.19,6.24-10.85,13.82-21.55,24.67-34.18,32.55-45.92,32.55-48.3,0-1.19-10.85-18-24.23-37.45l-24.22-35.08,52.16-.6c28.69-.29,52.47-.14,53.06.45s-10.1,17.09-23.63,36.86c-16.35,23.63-24.22,36.86-22.89,38.64,1,1.49,11.75,16.95,23.93,34.19,12.19,17.39,22.45,32.25,22.74,33.29.45.89-22.59,1.63-51.27,1.63-31.51,0-52-.74-52-2.08Zm90.51-6.68c0-2.83-37.6-55.15-39.53-55.15-.9,0-7.58,8.63-14.72,19-7.28,10.55-15.75,22.59-19.17,26.75-3.27,4.31-5.5,8.62-4.76,9.66,1.64,2.68,78.18,2.53,78.18-.29Zm-29.72-83.38c4.75-6.84,13.37-19.33,19.17-27.5s10.55-15.9,10.55-17.09c0-1.34-14.86-2.23-40-2.23-32.1,0-39.83.59-38.94,2.82,1.34,3.27,38.94,56.78,40,56.78.3,0,4.46-5.8,9.22-12.78Zm76.09,78.47c0-18.88,17.54-43.4,40.73-56.92,28.68-16.95,40.87-30,40.87-44.44,0-19.62-30.62-35.67-49.35-25.86-7,3.71-16.79,15.3-18.43,21.7-2.37,9.95-4.75,12.93-9.51,11.74-3.42-.89-4-2.38-3-7,4.61-19.32,21-36.56,37-38.94,12.93-1.93,24.07.15,34.18,6.54,14.27,9.07,16.65,13.23,17.39,30.62.45,14.42,0,16.64-5.65,24.67-3.56,5.05-14.86,14.57-26.3,22.29-11.15,7.44-24.08,17-29,21-9.06,7.88-18,23-18,30.62,0,4.31,1.19,4.46,39.68,4.46,38.2,0,39.69.14,39.69,4.46s-1.49,4.45-45.19,4.45h-45.33l.15-9.36Zm142.24,7.43c-10.85-3.57-18.43-10.4-24.53-22.14-5.94-11.75-6.39-14.12-7.13-44.74-1-46.82,5.5-65.84,26.16-76.54,8-4,12.19-4.91,21.7-3.87,16.49,1.49,26.45,8.62,34.48,24.67,5.94,12,6.54,15.46,7.43,41.92,1,34.18-1.63,49.49-11.15,63.91-10.25,15.45-29.72,22.44-47,16.79Zm34.63-17.39c10.55-10,13.37-23,12.48-59.75-.59-27-1.48-33.88-5.2-41.16-13.08-26.31-48.3-24.53-59.75,3-2.23,5.35-3.12,17.39-3.12,43.55,0,32.54.45,36.85,4.76,45,2.52,5.05,7,10.55,9.95,12.48,12.79,8.33,30.18,7,40.88-3.12Zm42.36,16.2c-1.79-4.6.74-8,6.09-8,3.27,0,4.16,1.33,3.71,5.05-.89,5.65-7.87,7.88-9.8,3Zm60.93.15c-13.23-6.84-17.83-11.44-23.63-23.18-5.94-12-6.09-13.68-6.09-47.86,0-42.21,2.37-51.28,18-64.95,22.29-19.62,52.91-11.89,67.33,17.24,4.61,9.51,5.05,13.08,5.05,46.67-.15,32.1-.59,37.6-4.75,46.37-4.76,10.55-17.39,23-26.46,26.6-7.73,3-23,2.53-29.43-.89Zm34-13.67c12.33-8.18,15.45-18.73,16.35-55.14.59-29.58.29-34.19-3.72-43-8.32-18.28-16.2-24.37-32.25-24.37-8.32,0-11.45,1.34-18.73,7.88-13.08,11.89-16.64,23.48-16.64,55,0,32.7,3.27,45.18,14.56,56.62,11.45,11.45,25.86,12.49,40.43,3Z" transform="translate(-6467.49 -7112.58)"/></svg>